KRSPY-parametric-WideBlackMinGrade.ufo
<glyph name="comma" format="2">
  <advance width="1785"/>
  <unicode hex="002C"/>
  <outline>
    <contour>
      <point x="1371" y="-110" type="line"/>
      <point x="1629" y="1" type="line"/>
      <point x="1629" y="508" type="line"/>
      <point x="916" y="508" type="line"/>
      <point x="785" y="341" type="line"/>
      <point x="785" y="0" type="line"/>
      <point x="1233" y="0" type="line"/>
      <point x="1233" y="-110" type="line"/>
    </contour>
  </outline>
</glyph>
<glyph name="period" format="2">
  <advance width="1155.1361361361362"/>
  <unicode hex="002E"/>
  <outline>
    <contour>
      <point x="942.4344344344344" y="0.0" type="line" identifier="1m237t4hyw"/>
      <point x="1053.6896896896899" y="108.8938938938939" type="line" identifier="v7N4yg5XNk"/>
      <point x="1053.6896896896899" y="514.968968968969" type="line"/>
      <point x="256.9389389389389" y="514.968968968969" type="line" identifier="zfocDyDTCM"/>
      <point x="145.68368368368368" y="406.075075075075" type="line"/>
      <point x="145.68368368368368" y="0.0" type="line" identifier="S4rO5KuHiL"/>
    </contour>
  </outline>
</glyph>
<glyph name="one" format="2">
  <advance width="4700.614614614615"/>
  <unicode hex="0031"/>
  <outline>
    <contour>
      <point x="89.0" y="0.0" type="line"/>
      <point x="4478.2312312312315" y="0.0" type="line" identifier="CURJAw79Zl"/>
      <point x="4478.2312312312315" y="574.9729729729729" type="line" identifier="0DUCJo8xIi"/>
      <point x="2711.5155155155157" y="574.9729729729729" type="line" identifier="5nmxQXofSG"/>
      <point x="2711.5155155155157" y="1600.0" type="line" identifier="4rjIeWbSbx"/>
      <point x="85.99999999999999" y="1600.0" type="line"/>
      <point x="85.99999999999999" y="1025.027027027027" type="line"/>
      <point x="1855.7157157157158" y="1025.027027027027" type="line"/>
      <point x="1855.7157157157158" y="574.9729729729729" type="line"/>
      <point x="89.0" y="574.9729729729729" type="line"/>
    </contour>
  </outline>
</glyph>
<glyph name="two" format="2">
  <advance width="4783"/>
  <unicode hex="0032"/>
  <outline>
    <contour>
      <point x="137" y="0" type="line"/>
      <point x="4646" y="0" type="line" identifier="pzdvPTirLJ"/>
      <point x="4646" y="467" type="line"/>
      <point x="1286" y="467" type="line"/>
      <point x="1286" y="501" type="line"/>
      <point x="4586" y="788" type="line" identifier="yyb1NCCI5w"/>
      <point x="4586" y="1600" type="line" identifier="5FogYRSgkk"/>
      <point x="156" y="1600" type="line" identifier="svlFvrau4c"/>
      <point x="156" y="965" type="line" identifier="LQ9fBsTy9K"/>
      <point x="996" y="965" type="line"/>
      <point x="996" y="1133" type="line"/>
      <point x="3401" y="1133" type="line"/>
      <point x="3401" y="1051" type="line"/>
      <point x="137" y="790" type="line" identifier="teVKnpBcVb"/>
    </contour>
  </outline>
</glyph>
<glyph name="three" format="2">
  <advance width="5157"/>
  <unicode hex="0033"/>
  <outline>
    <contour>
      <point x="219" y="0" type="line" identifier="O9abUc1nmN"/>
      <point x="4882" y="0" type="line" identifier="kMJYMTfXCq"/>
      <point x="4882" y="891" type="line" identifier="su2XmdS8e8"/>
      <point x="4323" y="897" type="line" identifier="JQaOzDQqlF"/>
      <point x="4247" y="794" type="line"/>
      <point x="4779" y="1080" type="line" identifier="S91TzLL02W"/>
      <point x="4779" y="1600" type="line" identifier="xg8x2Ki40p"/>
      <point x="240" y="1600" type="line" identifier="pE1XSRiy68"/>
      <point x="240" y="931" type="line" identifier="5lNstGRcSF"/>
      <point x="1085" y="931" type="line" identifier="AcE5xKDZfE"/>
      <point x="1085" y="1133" type="line" identifier="7ogBYufWpl"/>
      <point x="3752" y="1133" type="line" identifier="RHLvSX2Jv6"/>
      <point x="3752" y="1128" type="line" identifier="YUjTrmoWd9"/>
      <point x="3544" y="1032" type="line"/>
      <point x="3620" y="1031" type="line" identifier="iic1IBkDqp"/>
      <point x="1572" y="1031" type="line" identifier="lRLJEhXMlO"/>
      <point x="1572" y="564" type="line" identifier="8aKgEELrVU"/>
      <point x="4037" y="564" type="line" identifier="Dm8zjmbhNr"/>
      <point x="4037" y="467" type="line" identifier="xv9CFHiFgB"/>
      <point x="1064" y="467" type="line" identifier="YajKQV3MHP"/>
      <point x="1064" y="664" type="line" identifier="36SchVkwze"/>
      <point x="219" y="664" type="line" identifier="tVui9PiOjA"/>
    </contour>
  </outline>
</glyph>
<glyph name="four" format="2">
  <advance width="5044"/>
  <unicode hex="0034"/>
  <outline>
    <contour>
      <point x="3587" y="0" type="line"/>
      <point x="4431" y="0" type="line"/>
      <point x="4431" y="499" type="line"/>
      <point x="4828" y="499" type="line"/>
      <point x="4828" y="1002" type="line"/>
      <point x="4431" y="1002" type="line"/>
      <point x="4431" y="1600" type="line"/>
      <point x="3587" y="1600" type="line"/>
      <point x="3587" y="1002" type="line"/>
      <point x="1057" y="1002" type="line"/>
      <point x="1057" y="1075" type="line"/>
      <point x="1467" y="1615" type="line"/>
      <point x="625" y="1615" type="line"/>
      <point x="215" y="1075" type="line"/>
      <point x="215" y="499" type="line"/>
      <point x="3587" y="499" type="line"/>
    </contour>
  </outline>
</glyph>
<glyph name="five" format="2">
  <advance width="5504.2292292292295"/>
  <unicode hex="0035"/>
  <outline>
    <contour>
      <point x="223.38338338338338" y="0.0" type="line" identifier="09VlJ0BjUX"/>
      <point x="5282.688688688689" y="0.0" type="line" identifier="EagWihqFM8"/>
      <point x="5282.688688688689" y="850.6286286286286" type="line" identifier="KfNuQA7eZe"/>
      <point x="1077.1831831831832" y="868.8628628628629" type="line" identifier="At364YZFEy"/>
      <point x="1077.1831831831832" y="1061.0630630630633" type="line" identifier="BcuLfvaQKC"/>
      <point x="5282.688688688689" y="1061.0630630630633" type="line" identifier="3ZUkG35meB"/>
      <point x="5282.688688688689" y="1600.0" type="line" identifier="SaF9ojRFrW"/>
      <point x="221.54054054054052" y="1600.0" type="line" identifier="F4sQEYelA8"/>
      <point x="221.54054054054052" y="585.1451451451452" type="line" identifier="3sQ8t8BZ6b"/>
      <point x="4427.046046046046" y="566.9109109109108" type="line" identifier="yiV6OCBLHg"/>
      <point x="4427.046046046046" y="538.936936936937" type="line" identifier="9kdl9SYsn8"/>
      <point x="910.6146146146147" y="538.936936936937" type="line" identifier="yZDWuX8LLe"/>
      <point x="910.6146146146147" y="448.8468468468469" type="line" identifier="jYb9001DTm"/>
      <point x="223.38338338338338" y="448.8468468468469" type="line" identifier="ho4DrS0rdW"/>
    </contour>
  </outline>
</glyph>
<glyph name="seven" format="2">
  <advance width="5006"/>
  <unicode hex="0037"/>
  <outline>
    <contour>
      <point x="1770" y="0" type="line"/>
      <point x="2919" y="0" type="line" identifier="PiPrv7Kcoy"/>
      <point x="4868" y="996" type="line" identifier="PkvwNC9Tx1"/>
      <point x="4868" y="1600" type="line" identifier="tgqM27bPOm"/>
      <point x="138" y="1600" type="line" identifier="36ml4xRICt"/>
      <point x="138" y="800" type="line" identifier="aaDZsh5Mah"/>
      <point x="982" y="800" type="line"/>
      <point x="982" y="1097" type="line"/>
      <point x="3568" y="1097" type="line"/>
      <point x="3568" y="1012" type="line"/>
    </contour>
  </outline>
</glyph>
<glyph name="B" format="2">
  <advance width="5298.2982982982985"/>
  <unicode hex="0042"/>
  <outline>
    <contour>
      <point x="130.2902902902903" y="0.0" type="line" identifier="hvY9r8RmLr"/>
      <point x="5196.851851851852" y="0.0" type="line" identifier="9QFpw7nfq7"/>
      <point x="5196.851851851852" y="565.2432432432432" type="line" identifier="543PerILpr"/>
      <point x="4827.694694694695" y="799.8428428428429" type="line" identifier="zhomauHW30"/>
      <point x="4827.694694694695" y="801.8428428428429" type="line" identifier="870ZhtaozS"/>
      <point x="5140.377377377377" y="1027.7567567567567" type="line" identifier="eGKH52Jgnk"/>
      <point x="5140.377377377377" y="1600.0" type="line" identifier="FaP204GrdB"/>
      <point x="130.2902902902903" y="1600.0" type="line" identifier="JEev70GAj6"/>
    </contour>
    <contour>
      <point x="985.1891891891892" y="1013.6126126126126" type="line" identifier="By7dfMihfe"/>
      <point x="985.1891891891892" y="1124.126126126126" type="line" identifier="1p5hKrurVy"/>
      <point x="4284.577577577577" y="1124.126126126126" type="line" identifier="Qby8aMtF2X"/>
      <point x="4284.577577577577" y="1176.5045045045047" type="line" identifier="9lW01gQyU2"/>
      <point x="4115.93993993994" y="1013.6126126126126" type="line" identifier="xpxyvIzPoc"/>
    </contour>
    <contour>
      <point x="985.1891891891892" y="475.8738738738739" type="line" identifier="jaMSiLrCua"/>
      <point x="985.1891891891892" y="586.3873873873874" type="line" identifier="XSrxNd2axx"/>
      <point x="3972.638638638639" y="586.3873873873874" type="line" identifier="VyYlzRh5nq"/>
      <point x="4341.052052052052" y="362.4414414414415" type="line" identifier="lsRGatjQja"/>
      <point x="4341.052052052052" y="475.8738738738739" type="line" identifier="xhlDJ3CjD5"/>
    </contour>
  </outline>
</glyph>
<glyph name="C" format="2">
  <advance width="5294.937937937938"/>
  <unicode hex="0043"/>
  <outline>
    <contour>
      <point x="101.44644644644646" y="0.0" type="line" identifier="7lPhzTnk2Z"/>
      <point x="5145.273273273274" y="0.0" type="line" identifier="qJVLZGnkwh"/>
      <point x="5145.273273273274" y="708.4064064064065" type="line" identifier="nDnDHzAMXL"/>
      <point x="4289.473473473474" y="708.4064064064065" type="line" identifier="QX1V08aTu0"/>
      <point x="4289.473473473474" y="583.981981981982" type="line" identifier="Y750RHTvDj"/>
      <point x="957.98998998999" y="583.981981981982" type="line" identifier="L2LsGnXiZ2"/>
      <point x="957.98998998999" y="767.063063063063" type="line" identifier="sUWsr03vF4"/>
      <point x="1219.143143143143" y="1016.0180180180181" type="line" identifier="dbOUe6OhxL"/>
      <point x="4290.704704704704" y="1016.0180180180181" type="line" identifier="5BjRbcud80"/>
      <point x="4290.704704704704" y="772.964964964965" type="line" identifier="fNVDqwQo2o"/>
      <point x="5146.504504504504" y="772.964964964965" type="line" identifier="wLqQQx7QVN"/>
      <point x="5146.504504504504" y="1600.0" type="line" identifier="9eJelv8BOw"/>
      <point x="609.4464464464464" y="1600.0" type="line" identifier="lfZev3ICaC"/>
      <point x="101.44644644644646" y="1105.0" type="line" identifier="V1EWIdPahq"/>
    </contour>
  </outline>
</glyph>
<glyph name="E" format="2">
  <advance width="4654.029029029029"/>
  <unicode hex="0045"/>
  <outline>
    <contour>
      <point x="130.2902902902903" y="0.0" type="line" identifier="fZynkQ4XHB"/>
      <point x="4504.3643643643645" y="0.0" type="line" identifier="FAQNpgUPxV"/>
      <point x="4504.3643643643645" y="560.5585585585586" type="line" identifier="gHI0YjrPxR"/>
      <point x="3575.2372372372374" y="560.5585585585586" type="line" identifier="gxCIuXb4el"/>
      <point x="3575.2372372372374" y="520.918918918919" type="line" identifier="5cgTYOhATF"/>
      <point x="985.1891891891892" y="520.918918918919" type="line" identifier="bWs42DaCgU"/>
      <point x="985.1891891891892" y="626.0270270270271" type="line" identifier="VtD2aADJmn"/>
      <point x="4477.436436436436" y="626.0270270270271" type="line" identifier="PpbsFdHAnS"/>
      <point x="4477.436436436436" y="973.972972972973" type="line" identifier="8WuC5p8Ax5"/>
      <point x="985.1891891891892" y="973.972972972973" type="line" identifier="m39IWn9ntA"/>
      <point x="985.1891891891892" y="1079.081081081081" type="line" identifier="gQ21I4SHQg"/>
      <point x="3574.2372372372374" y="1079.081081081081" type="line" identifier="eqNb2VTwYs"/>
      <point x="3574.237237237237" y="1029.5315315315315" type="line" identifier="mLmcFoJA4m"/>
      <point x="4503.364364364364" y="1029.5315315315315" type="line" identifier="e79n7CoPy1"/>
      <point x="4503.3643643643645" y="1600.0" type="line" identifier="qYRmo14Il5"/>
      <point x="130.2902902902903" y="1600.0" type="line" identifier="HmJIcnLWfC"/>
    </contour>
  </outline>
</glyph>
<glyph name="H" format="2">
  <advance width="5326.241241241241"/>
  <unicode hex="0048"/>
  <outline>
    <contour>
      <point x="130.2902902902903" y="0.0" type="line" identifier="uqAJBjDIOT"/>
      <point x="985.1891891891892" y="0.0" type="line" identifier="WUaPOcaxKT"/>
      <point x="985.1891891891892" y="535.936936936937" type="line" identifier="QjywsYY2yB"/>
      <point x="4340.052052052052" y="535.936936936937" type="line" identifier="7JgTtdb0jg"/>
      <point x="4340.052052052052" y="0.0" type="line" identifier="njzlIRBsoY"/>
      <point x="5195.950950950951" y="0.0" type="line" identifier="oOtn61SmRY"/>
      <point x="5195.950950950951" y="1600.0" type="line" identifier="8OglXgblhr"/>
      <point x="4340.052052052052" y="1600.0" type="line" identifier="db0bPhBdaU"/>
      <point x="4340.052052052052" y="1064.063063063063" type="line" identifier="MTAeavIVWY"/>
      <point x="985.1891891891892" y="1064.063063063063" type="line" identifier="lggLiivmLt"/>
      <point x="985.1891891891892" y="1600.0" type="line" identifier="UPaHY3UudR"/>
      <point x="130.2902902902903" y="1600.0" type="line" identifier="ZnCDQVdtyD"/>
    </contour>
  </outline>
</glyph>
<glyph name="J" format="2">
  <advance width="5170.402402402403"/>
  <unicode hex="004A"/>
  <outline>
    <contour>
      <point x="448.6106106106106" y="0.0" type="line" identifier="jiO9eX9U07"/>
      <point x="5040.112112112113" y="0.0" type="line" identifier="wgpFs1yguc"/>
      <point x="5040.112112112113" y="1600.0" type="line" identifier="d5Di3vNzni"/>
      <point x="414.1911911911912" y="1600.0" type="line" identifier="TbrXnCyMEi"/>
      <point x="414.1911911911912" y="970.9729729729731" type="line" identifier="AdYfGKx8QJ"/>
      <point x="4183.46946946947" y="970.9729729729731" type="line" identifier="46RrD1WET2"/>
      <point x="4183.46946946947" y="629.0270270270271" type="line" identifier="zFXsE8BUYG"/>
      <point x="1119.8828828828828" y="629.0270270270271" type="line" identifier="NQmE31PUns"/>
      <point x="1005.4644644644644" y="909.6796796796797" type="line" identifier="qiXxY6YhCq"/>
      <point x="149.66466466466466" y="909.6796796796797" type="line" identifier="7exNZv1XSc"/>
    </contour>
  </outline>
</glyph>
<glyph name="K" format="2">
  <advance width="5298.2982982982985"/>
  <unicode hex="004B"/>
  <outline>
    <contour>
      <point x="986.09009009009" y="0.0" type="line" identifier="wmNm7XZsaF"/>
      <point x="986.09009009009" y="481.88288288288294" type="line" identifier="O22liaP9Qk"/>
      <point x="4027.3803803803808" y="481.88288288288294" type="line" identifier="ELFBWIb1vd"/>
      <point x="4341.052052052052" y="280.51151151151157" type="line" identifier="DzXo67YEfw"/>
      <point x="4341.052052052052" y="0.0" type="line" identifier="aKpYWD78l2"/>
      <point x="5196.851851851852" y="0.0" type="line" identifier="ChS7KlqGi6"/>
      <point x="5196.851851851852" y="557.2432432432432" type="line" identifier="sWLgkU8Vey"/>
      <point x="4814.950950950951" y="799.0" type="line" identifier="Of0iQc0wBG"/>
      <point x="4814.950950950951" y="801.0" type="line" identifier="j4jnmtDJYB"/>
      <point x="5193.851851851852" y="1027.7567567567567" type="line" identifier="dWvz0rZ5Hv"/>
      <point x="5193.851851851852" y="1600.0" type="line" identifier="dMJ1ywOKQQ"/>
      <point x="4338.052052052053" y="1600.0" type="line" identifier="08OWjR2YBJ"/>
      <point x="4338.052052052053" y="1297.2812812812813" type="line" identifier="F62GU90G6q"/>
      <point x="4026.47947947948" y="1110.9099099099099" type="line" identifier="g4YLdZEoM3"/>
      <point x="986.09009009009" y="1110.9099099099099" type="line" identifier="uZuki3Isec"/>
      <point x="986.09009009009" y="1600.0" type="line" identifier="nRfcNgqJ4H"/>
      <point x="130.2902902902903" y="1600.0" type="line" identifier="3XJlWt89ad"/>
      <point x="130.2902902902903" y="0.0" type="line" identifier="wdbO8kCovY"/>
    </contour>
  </outline>
</glyph>
<glyph name="M" format="2">
  <advance width="6778"/>
  <unicode hex="004D"/>
  <outline>
    <contour>
      <point x="2864" y="23" type="line" identifier="0Dn4Xpf57M"/>
      <point x="1533" y="1097" type="line"/>
      <point x="1205" y="1097" type="line"/>
      <point x="1205" y="0" type="line"/>
      <point x="370" y="0" type="line"/>
      <point x="370" y="1600" type="line"/>
      <point x="2061" y="1600" type="line"/>
      <point x="3278" y="612" type="line"/>
      <point x="3501" y="612" type="line" identifier="9aKZPM0HPh"/>
      <point x="4715" y="1600" type="line"/>
      <point x="6408" y="1600" type="line"/>
      <point x="6408" y="0" type="line"/>
      <point x="5572" y="0" type="line"/>
      <point x="5572" y="1097" type="line"/>
      <point x="5244" y="1097" type="line"/>
      <point x="3915" y="23" type="line" identifier="spdoeeCFft"/>
    </contour>
  </outline>
</glyph>
<glyph name="N" format="2">
  <advance width="4346.09009009009"/>
  <unicode hex="004E"/>
  <outline>
    <contour>
      <point x="109.21921921921924" y="0.0" type="line" identifier="CkwYPPvJLv"/>
      <point x="964.1181181181182" y="0.0" type="line" identifier="oHTJsN7drZ"/>
      <point x="964.1181181181182" y="970.972972972973" type="line" identifier="wfBbYd10Pm"/>
      <point x="979.8618618618619" y="970.972972972973" type="line" identifier="MEnBDHq6zU"/>
      <point x="3381.971971971972" y="515.7087087087087" type="line" identifier="3Nbopwznvn"/>
      <point x="3381.971971971972" y="0.0" type="line"/>
      <point x="4236.870870870871" y="0.0" type="line" identifier="uKfuudIUvA"/>
      <point x="4236.870870870871" y="1600.0" type="line" identifier="XRdLFXiM4t"/>
      <point x="3381.971971971973" y="1600.0" type="line" identifier="MUSJPjCIXg"/>
      <point x="3381.971971971972" y="1115.105105105105" type="line" identifier="VILP20cFmq"/>
      <point x="3364.7147147147143" y="1115.105105105105" type="line" identifier="z5b04GDwRN"/>
      <point x="979.8618618618617" y="1600.0" type="line" identifier="LL64NQ6WBE"/>
      <point x="109.21921921921924" y="1600.0" type="line" identifier="dzUaaP1sjt"/>
    </contour>
  </outline>
</glyph>
<glyph name="O" format="2">
  <advance width="5157.088088088088"/>
  <unicode hex="004F"/>
  <outline>
    <contour>
      <point x="5055.641641641642" y="532.4814814814815" type="line" identifier="ob8US3C311"/>
      <point x="5055.641641641642" y="1600.0" type="line" identifier="c9brEFyXXA"/>
      <point x="599.2892892892893" y="1600.0" type="line" identifier="a4Ql951bxG"/>
      <point x="101.44644644644646" y="1068.963963963964" type="line" identifier="kbL68Qh2zr"/>
      <point x="101.44644644644646" y="0.0" type="line" identifier="U6WibAQAUl"/>
      <point x="4557.055055055055" y="0.0" type="line" identifier="dfgNHTgBfR"/>
    </contour>
    <contour>
      <point x="4199.841841841841" y="855.6236236236236" type="line" identifier="SnrsQD5TLy"/>
      <point x="3993.192192192192" y="629.0270270270271" type="line" identifier="jjd5iRDXWT"/>
      <point x="956.3453453453453" y="629.0270270270271" type="line" identifier="YbQKHpAtYn"/>
      <point x="956.3453453453453" y="743.1191191191192" type="line" identifier="vdfGLkskOQ"/>
      <point x="1155.0440440440439" y="970.9729729729731" type="line" identifier="qXlVxK5ShE"/>
      <point x="4199.841841841841" y="970.9729729729731" type="line" identifier="g70r2r6DwY"/>
    </contour>
  </outline>
</glyph>
<glyph name="P" format="2">
  <advance width="5262.947947947948"/>
  <unicode hex="0050"/>
  <outline>
    <contour>
      <point x="109.21921921921924" y="0.0" type="line" identifier="EG08jqU5fb"/>
      <point x="964.1181181181182" y="0.0" type="line" identifier="osRzIFK2Cu"/>
      <point x="964.1181181181182" y="272.79379379379384" type="line" identifier="hIFVovVRwe"/>
      <point x="5134.354354354355" y="311.5765765765766" type="line" identifier="Tt6D8zYZmU"/>
      <point x="5134.354354354355" y="1600.0" type="line" identifier="6xW04auDFu"/>
      <point x="109.21921921921924" y="1600.0" type="line" identifier="eETO5GBD5v"/>
    </contour>
    <contour>
      <point x="964.1181181181182" y="777.4964964964965" type="line" identifier="PIBVN1PGv1"/>
      <point x="964.1181181181182" y="1025.027027027027" type="line" identifier="IZIZQr2gYJ"/>
      <point x="4277.711711711711" y="1025.027027027027" type="line" identifier="2c4LCF1E1R"/>
      <point x="4277.711711711711" y="788.2892892892893" type="line" identifier="1WCnzth1GX"/>
    </contour>
  </outline>
</glyph>
<glyph name="Q" format="2">
  <advance width="4897"/>
  <unicode hex="0051"/>
  <outline>
    <contour>
      <point x="4775" y="1600" type="line" identifier="c9brEFyXXA"/>
      <point x="559" y="1600" type="line" identifier="a4Ql951bxG"/>
      <point x="95" y="1118" type="line" identifier="kbL68Qh2zr"/>
      <point x="95" y="2" type="line" identifier="U6WibAQAUl"/>
      <point x="4775" y="2" type="line" identifier="dfgNHTgBfR"/>
    </contour>
    <contour>
      <point x="3931" y="504" type="line" identifier="jjd5iRDXWT"/>
      <point x="939" y="504" type="line" identifier="YbQKHpAtYn"/>
      <point x="939" y="877" type="line" identifier="vdfGLkskOQ"/>
      <point x="1188" y="1097" type="line" identifier="qXlVxK5ShE"/>
      <point x="3931" y="1097" type="line" identifier="g70r2r6DwY"/>
    </contour>
    <contour>
      <point x="2089" y="-263" type="line"/>
      <point x="2837" y="-263" type="line"/>
      <point x="2837" y="2" type="line"/>
      <point x="2089" y="2" type="line"/>
    </contour>
  </outline>
</glyph>
<glyph name="R" format="2">
  <advance width="5197.557557557558"/>
  <unicode hex="0052"/>
  <outline>
    <contour>
      <point x="965.9199199199201" y="885.6846846846847" type="line"/>
      <point x="964.1181181181182" y="1025.027027027027" type="line"/>
      <point x="4257.481481481482" y="1025.027027027027" type="line"/>
      <point x="4258.382382382382" y="1114.3423423423424" type="line"/>
      <point x="3891.3823823823823" y="885.6846846846847" type="line"/>
    </contour>
    <contour>
      <point x="5116.281281281282" y="0.0" type="line"/>
      <point x="5117.182182182182" y="426.50450450450444" type="line"/>
      <point x="4748.182182182182" y="661.1621621621621" type="line"/>
      <point x="4748.182182182182" y="663.1621621621621" type="line"/>
      <point x="5114.182182182182" y="889.918918918919" type="line"/>
      <point x="5113.281281281282" y="1600.0" type="line"/>
      <point x="109.21921921921924" y="1600.0" type="line"/>
      <point x="109.21921921921924" y="0.0" type="line"/>
      <point x="965.0190190190191" y="0.0" type="line"/>
      <point x="965.0190190190191" y="404.4054054054054" type="line"/>
      <point x="3892.2832832832833" y="404.4054054054054" type="line"/>
      <point x="4260.481481481482" y="162.44144144144144" type="line"/>
      <point x="4260.481481481482" y="0.0" type="line"/>
    </contour>
  </outline>
</glyph>
<glyph name="S" format="2">
  <advance width="5232.82082082082"/>
  <unicode hex="0053"/>
  <outline>
    <contour>
      <point x="130.5935935935936" y="0.0" type="line" identifier="09VlJ0BjUX"/>
      <point x="5104.227227227228" y="0.0" type="line" identifier="EagWihqFM8"/>
      <point x="5104.227227227228" y="981.1801801801802" type="line" identifier="KfNuQA7eZe"/>
      <point x="984.3933933933935" y="981.1801801801802" type="line" identifier="At364YZFEy"/>
      <point x="984.3933933933935" y="1178.8838838838838" type="line"/>
      <point x="1010.179179179179" y="1093.4954954954956" type="line"/>
      <point x="4248.427427427428" y="1093.4954954954956" type="line" identifier="3ZUkG35meB"/>
      <point x="4248.427427427428" y="1050.0900900900901" type="line" identifier="DTOJhFIl15"/>
      <point x="5104.227227227228" y="1050.0900900900901" type="line" identifier="9KDcrfQ5Ui"/>
      <point x="5104.227227227228" y="1600.0" type="line" identifier="SaF9ojRFrW"/>
      <point x="543.3083083083084" y="1600.0" type="line"/>
      <point x="128.5935935935936" y="1178.883883883884" type="line"/>
      <point x="128.5935935935936" y="618.8198198198198" type="line" identifier="3sQ8t8BZ6b"/>
      <point x="4248.427427427428" y="618.8198198198198" type="line" identifier="yiV6OCBLHg"/>
      <point x="4248.427427427428" y="506.5045045045045" type="line" identifier="9kdl9SYsn8"/>
      <point x="987.1371371371371" y="506.5045045045045" type="line" identifier="yZDWuX8LLe"/>
      <point x="987.1371371371371" y="475.41241241241255" type="line" identifier="jYb9001DTm"/>
      <point x="130.5935935935936" y="475.41241241241255" type="line" identifier="ho4DrS0rdW"/>
    </contour>
  </outline>
</glyph>
<glyph name="U" format="2">
  <advance width="4699"/>
  <unicode hex="0055"/>
  <outline>
    <contour>
      <point x="3731" y="1600" type="line" smooth="yes"/>
      <point x="3731" y="503" type="line"/>
      <point x="1137" y="503" type="line" smooth="yes"/>
      <point x="939" y="705" type="line" smooth="yes"/>
      <point x="939" y="1600" type="line"/>
      <point x="96" y="1600" type="line" smooth="yes"/>
      <point x="96" y="505" type="line" smooth="yes"/>
      <point x="568" y="0" type="line" smooth="yes"/>
      <point x="4575" y="0" type="line" smooth="yes"/>
      <point x="4575" y="1600" type="line" smooth="yes"/>
    </contour>
  </outline>
</glyph>
<glyph name="V" format="2">
  <advance width="5256.742742742742"/>
  <unicode hex="0056"/>
  <outline>
    <contour>
      <point x="964.1181181181182" y="1600.0" type="line" smooth="yes"/>
      <point x="964.1181181181182" y="574.9729729729729" type="line"/>
      <point x="3956.868868868869" y="574.9729729729729" type="line" smooth="yes"/>
      <point x="4319.724724724725" y="927.8288288288289" type="line" smooth="yes"/>
      <point x="4319.724724724725" y="1600.0" type="line"/>
      <point x="5176.367367367367" y="1600.0" type="line" smooth="yes"/>
      <point x="5176.367367367367" y="498.0000000000001" type="line" smooth="yes"/>
      <point x="4668.3673673673675" y="0.0" type="line" smooth="yes"/>
      <point x="109.21921921921924" y="0.0" type="line" smooth="yes"/>
      <point x="109.21921921921924" y="1600.0" type="line" smooth="yes"/>
    </contour>
  </outline>
</glyph>
<glyph name="W" format="2">
  <advance width="6231.2982982982985"/>
  <unicode hex="0057"/>
  <outline>
    <contour>
      <point x="986.9329329329329" y="1600.0" type="line" smooth="yes" identifier="12Pyby1xY2"/>
      <point x="130.2902902902903" y="1600.0" type="line" smooth="yes" identifier="5LJg4ajoG6"/>
      <point x="130.2902902902903" y="0.0" type="line" smooth="yes" identifier="ZqTZqAY3uY"/>
      <point x="2953.0780780780783" y="0.0" type="line" smooth="yes" identifier="rCeQLyjlsN"/>
      <point x="3127.678678678679" y="298.0" type="line"/>
      <point x="3128.678678678679" y="298.0" type="line"/>
      <point x="3291.6216216216217" y="0.0" type="line" smooth="yes" identifier="Pkl7cZ37MU"/>
      <point x="5621.851851851852" y="0.0" type="line" smooth="yes" identifier="R4lklfJsHA"/>
      <point x="6129.851851851852" y="498.0" type="line" smooth="yes" identifier="7g7f8Wu7K4"/>
      <point x="6129.851851851852" y="1600.0" type="line" smooth="yes" identifier="RTOJW56qXy"/>
      <point x="5274.052052052052" y="1600.0" type="line" identifier="JfSFAkWGZC"/>
      <point x="5274.052052052052" y="843.9459459459459" type="line" smooth="yes" identifier="WWvGwSpq0g"/>
      <point x="4982.268268268268" y="574.9729729729729" type="line" smooth="yes" identifier="oee4nqI8Wl"/>
      <point x="3725.941941941942" y="574.9729729729729" type="line" identifier="Ljn2lpvpG8"/>
      <point x="3557.941941941942" y="870.9729729729729" type="line"/>
      <point x="3557.941941941942" y="1468.5685685685685" type="line" smooth="yes"/>
      <point x="2703.943943943944" y="1468.5685685685685" type="line"/>
      <point x="2702.142142142142" y="1218.7987987987988" type="line"/>
      <point x="2702.142142142142" y="871.3693693693695" type="line"/>
      <point x="2491.043043043043" y="574.9729729729729" type="line" identifier="GlWB6PG54Z"/>
      <point x="986.9329329329329" y="574.9729729729729" type="line" identifier="iqeTRv7HXg"/>
    </contour>
  </outline>
</glyph>
<glyph name="X" format="2">
  <advance width="5281.198198198198"/>
  <unicode hex="0058"/>
  <outline>
    <contour>
      <point x="3941.9519519519517" y="507.1081081081082" type="line"/>
      <point x="4323.951951951952" y="264.3513513513514" type="line"/>
      <point x="4323.951951951952" y="0.0" type="line"/>
      <point x="5179.751751751752" y="0.0" type="line"/>
      <point x="5179.751751751752" y="557.2432432432432" type="line"/>
      <point x="4799.495495495496" y="799.0" type="line"/>
      <point x="4799.495495495496" y="801.0" type="line"/>
      <point x="5176.751751751752" y="1027.7567567567567" type="line"/>
      <point x="5176.751751751752" y="1600.0" type="line"/>
      <point x="4320.951951951953" y="1600.0" type="line"/>
      <point x="4320.951951951953" y="1320.6486486486485" type="line"/>
      <point x="3941.9519519519517" y="1092.8918918918919" type="line"/>
      <point x="1340.089089089089" y="1092.8918918918919" type="line"/>
      <point x="960.2462462462463" y="1320.6486486486485" type="line"/>
      <point x="960.2462462462463" y="1600.0" type="line"/>
      <point x="104.44644644644646" y="1600.0" type="line"/>
      <point x="104.44644644644646" y="1027.7567567567567" type="line"/>
      <point x="484.19019019019015" y="801.0" type="line"/>
      <point x="484.19019019019015" y="799.0" type="line"/>
      <point x="101.44644644644646" y="557.2432432432432" type="line"/>
      <point x="101.44644644644646" y="0.0" type="line"/>
      <point x="957.2462462462463" y="0.0" type="line"/>
      <point x="957.2462462462463" y="264.3513513513514" type="line"/>
      <point x="1340.089089089089" y="507.1081081081082" type="line"/>
    </contour>
  </outline>
</glyph>
<glyph name="Y" format="2">
  <advance width="5323.335335335335"/>
  <unicode hex="0059"/>
  <outline>
    <contour>
      <point x="2234.3463463463463" y="1.4874874874874875" type="line" identifier="XKjckKJ7m9"/>
      <point x="3090.146146146146" y="0.0" type="line" identifier="WihjL321cU"/>
      <point x="3090.146146146146" y="560.1551551551552" type="line" identifier="rvzWMWl6O1"/>
      <point x="5194.741741741741" y="748.4054054054054" type="line" identifier="YbKEFhFR3q"/>
      <point x="5194.741741741741" y="1576.2002002002002" type="line" identifier="wnC8PudY2b"/>
      <point x="4338.941941941942" y="1576.2002002002002" type="line" identifier="spI4xe8t4f"/>
      <point x="4338.941941941942" y="1197.4374374374374" type="line" identifier="Jw55i2s2Mm"/>
      <point x="2803.5795795795793" y="1063.2282282282283" type="line" identifier="9ncbEH2hEb"/>
      <point x="2520.9129129129133" y="1063.2282282282283" type="line" identifier="u7HFbTQwMo"/>
      <point x="984.3933933933934" y="1197.4374374374374" type="line" identifier="oy8ifCCtGL"/>
      <point x="984.3933933933934" y="1576.2002002002002" type="line" identifier="ah5yat5gKV"/>
      <point x="128.5935935935936" y="1576.2002002002002" type="line" identifier="fJXhpKV79E"/>
      <point x="128.5935935935936" y="748.4054054054054" type="line" identifier="k3vH9oxqcN"/>
      <point x="2234.3463463463463" y="560.1551551551552" type="line" identifier="3Kveia3O9h"/>
    </contour>
  </outline>
</glyph>
<glyph name="Z" format="2">
  <advance width="5325.492492492493"/>
  <unicode hex="005A"/>
  <outline>
    <contour>
      <point x="128.5935935935936" y="0.0" type="line"/>
      <point x="5196.898898898899" y="0.0" type="line" identifier="pzdvPTirLJ"/>
      <point x="5196.898898898899" y="429.74774774774767" type="line" identifier="91SxUS0iwG"/>
      <point x="4509.667667667667" y="429.74774774774767" type="line"/>
      <point x="4509.667667667667" y="574.9729729729729" type="line"/>
      <point x="1573.4824824824825" y="574.9729729729729" type="line"/>
      <point x="1573.4824824824825" y="630.3773773773775" type="line"/>
      <point x="5191.741741741741" y="869.3613613613612" type="line" identifier="yyb1NCCI5w"/>
      <point x="5191.741741741741" y="1600.0" type="line" identifier="5FogYRSgkk"/>
      <point x="131.5935935935936" y="1600.0" type="line" identifier="svlFvrau4c"/>
      <point x="131.5935935935936" y="1179.5755755755756" type="line" identifier="LQ9fBsTy9K"/>
      <point x="819.6676676676677" y="1179.5755755755756" type="line"/>
      <point x="819.6676676676677" y="1025.027027027027" type="line"/>
      <point x="3704.6526526526527" y="1025.027027027027" type="line"/>
      <point x="3704.6526526526527" y="963.858858858859" type="line"/>
      <point x="128.5935935935936" y="751.8458458458459" type="line" identifier="teVKnpBcVb"/>
    </contour>
  </outline>
</glyph>
<glyph name="C.wide" format="2">
  <advance width="4996"/>
  <outline>
    <contour>
      <point x="208" y="0" type="line" identifier="7lPhzTnk2Z"/>
      <point x="4859" y="0" type="line" identifier="qJVLZGnkwh"/>
      <point x="4859" y="568" type="line" identifier="Y750RHTvDj"/>
      <point x="1051" y="568" type="line" identifier="L2LsGnXiZ2"/>
      <point x="1052" y="785" type="line" identifier="sUWsr03vF4"/>
      <point x="1293" y="1032" type="line" identifier="dbOUe6OhxL"/>
      <point x="4858" y="1032" type="line" identifier="5BjRbcud80"/>
      <point x="4858" y="1600" type="line" identifier="9eJelv8BOw"/>
      <point x="680" y="1600" type="line" identifier="lfZev3ICaC"/>
      <point x="208" y="1095" type="line" identifier="V1EWIdPahq"/>
    </contour>
  </outline>
</glyph>
<glyph name="E.wide" format="2">
  <advance width="4537.512512512513"/>
  <outline>
    <contour>
      <point x="109.21921921921924" y="0.0" type="line" identifier="fZynkQ4XHB"/>
      <point x="4408.918918918919" y="0.0" type="line" identifier="FAQNpgUPxV"/>
      <point x="4408.918918918919" y="520.918918918919" type="line" identifier="5cgTYOhATF"/>
      <point x="964.1181181181182" y="520.918918918919" type="line" identifier="bWs42DaCgU"/>
      <point x="964.1181181181182" y="626.0270270270271" type="line" identifier="VtD2aADJmn"/>
      <point x="4309.918918918919" y="626.0270270270271" type="line" identifier="PpbsFdHAnS"/>
      <point x="4309.918918918919" y="973.972972972973" type="line" identifier="8WuC5p8Ax5"/>
      <point x="964.1181181181182" y="973.972972972973" type="line" identifier="m39IWn9ntA"/>
      <point x="964.1181181181182" y="1079.081081081081" type="line" identifier="gQ21I4SHQg"/>
      <point x="4407.918918918919" y="1079.081081081081" type="line" identifier="eqNb2VTwYs"/>
      <point x="4407.918918918919" y="1600.0" type="line" identifier="qYRmo14Il5"/>
      <point x="109.21921921921924" y="1600.0" type="line" identifier="HmJIcnLWfC"/>
    </contour>
  </outline>
</glyph>
<glyph name="F.wide" format="2">
  <advance width="4591.125125125125"/>
  <outline>
    <contour>
      <point x="109.21921921921924" y="0.0" type="line" identifier="oAgH2tA6DJ"/>
      <point x="964.1181181181182" y="0.0" type="line" identifier="zCZyMcW5ho"/>
      <point x="964.1181181181182" y="362.963963963964" type="line" identifier="yHYqkMd7LI"/>
      <point x="4221.531531531531" y="362.963963963964" type="line" identifier="NmB7yyQuio"/>
      <point x="4221.531531531531" y="855.0540540540541" type="line" identifier="wQk2C8zPHh"/>
      <point x="964.1181181181182" y="855.0540540540541" type="line" identifier="4cFHKQfHDt"/>
      <point x="964.1181181181182" y="1023.2252252252254" type="line" identifier="ZvzwyrcwpS"/>
      <point x="4462.531531531531" y="1023.2252252252254" type="line" identifier="4E754ovOIe"/>
      <point x="4462.531531531531" y="1600.0" type="line" identifier="NUrIjqOB7J"/>
      <point x="109.21921921921924" y="1600.0" type="line" identifier="TBAYuCfUFX"/>
    </contour>
  </outline>
</glyph>
<glyph name="G.wide" format="2">
  <advance width="4981"/>
  <outline>
    <contour>
      <point x="165" y="0" type="line" identifier="7lPhzTnk2Z"/>
      <point x="4697" y="0" type="line" identifier="qJVLZGnkwh"/>
      <point x="4697" y="1022" type="line" identifier="uek1NNj7De"/>
      <point x="2863" y="1022" type="line" identifier="qcvimxjndX"/>
      <point x="2863" y="563" type="line" identifier="EARaY3Su65"/>
      <point x="3854" y="563" type="line" identifier="4m6dHLVhZq"/>
      <point x="3854" y="467" type="line" identifier="Y750RHTvDj"/>
      <point x="1008" y="467" type="line" identifier="L2LsGnXiZ2"/>
      <point x="1008" y="928" type="line" identifier="sUWsr03vF4"/>
      <point x="1216" y="1133" type="line" identifier="dbOUe6OhxL"/>
      <point x="4696" y="1133" type="line" identifier="5BjRbcud80"/>
      <point x="4696" y="1600" type="line" identifier="9eJelv8BOw"/>
      <point x="633" y="1600" type="line" identifier="lfZev3ICaC"/>
      <point x="165" y="1099" type="line" identifier="V1EWIdPahq"/>
    </contour>
  </outline>
</glyph>
<glyph name="I.narrow" format="2">
  <advance width="1503"/>
  <outline>
    <contour>
      <point x="1173" y="0" type="line" identifier="1m237t4hyw"/>
      <point x="1173" y="1601" type="line" identifier="v7N4yg5XNk"/>
      <point x="329" y="1601" type="line" identifier="zfocDyDTCM"/>
      <point x="329" y="0" type="line" identifier="S4rO5KuHiL"/>
    </contour>
  </outline>
</glyph>
<glyph name="K.alt" format="2">
  <advance width="5335"/>
  <outline>
    <contour>
      <point x="1145" y="0" type="line" identifier="wmNm7XZsaF"/>
      <point x="1145" y="542" type="line" identifier="O22liaP9Qk"/>
      <point x="3738" y="542" type="line" identifier="ELFBWIb1vd"/>
      <point x="4028" y="535" type="line" identifier="DzXo67YEfw"/>
      <point x="4028" y="0" type="line" identifier="aKpYWD78l2"/>
      <point x="4872" y="0" type="line" identifier="ChS7KlqGi6"/>
      <point x="4872" y="1016" type="line" identifier="sWLgkU8Vey"/>
      <point x="4350" y="1032" type="line" identifier="Of0iQc0wBG"/>
      <point x="4486" y="1600" type="line" identifier="dMJ1ywOKQQ"/>
      <point x="3627" y="1600" type="line" identifier="08OWjR2YBJ"/>
      <point x="3507" y="1045" type="line" identifier="g4YLdZEoM3"/>
      <point x="1145" y="1045" type="line" identifier="uZuki3Isec"/>
      <point x="1145" y="1600" type="line" identifier="nRfcNgqJ4H"/>
      <point x="302" y="1600" type="line" identifier="3XJlWt89ad"/>
      <point x="302" y="0" type="line" identifier="wdbO8kCovY"/>
    </contour>
  </outline>
</glyph>
<glyph name="K.narrow" format="2">
  <advance width="5269"/>
  <outline>
    <contour>
      <point x="1166" y="0" type="line"/>
      <point x="1166" y="500" type="line"/>
      <point x="3913" y="643" type="line"/>
      <point x="4153" y="0" type="line"/>
      <point x="4994" y="0" type="line"/>
      <point x="4643" y="817" type="line"/>
      <point x="4932" y="832" type="line"/>
      <point x="4932" y="1600" type="line"/>
      <point x="4087" y="1600" type="line"/>
      <point x="4087" y="1155" type="line"/>
      <point x="1166" y="1002" type="line"/>
      <point x="1166" y="1600" type="line"/>
      <point x="322" y="1600" type="line"/>
      <point x="322" y="0" type="line"/>
    </contour>
  </outline>
</glyph>
<glyph name="L.wide" format="2">
  <advance width="4249.787787787788"/>
  <outline>
    <contour>
      <point x="109.21921921921923" y="0.0" type="line" identifier="XkJNfQlnnt"/>
      <point x="4120.293293293294" y="0.0" type="line" identifier="82EXZEgt46"/>
      <point x="4120.293293293294" y="629.0270270270271" type="line" identifier="cqpSxwFiM3"/>
      <point x="965.0190190190191" y="629.0270270270271" type="line" identifier="MbxRZRd8vz"/>
      <point x="965.0190190190191" y="1600.0" type="line" identifier="lYiaKSKITt"/>
      <point x="109.21921921921923" y="1600.0" type="line" identifier="XFf4mMUzYo"/>
    </contour>
  </outline>
</glyph>
<glyph name="M.narrow" format="2">
  <advance width="7109"/>
  <outline>
    <contour>
      <point x="5947" y="0" type="line" smooth="yes" identifier="12Pyby1xY2"/>
      <point x="6792" y="0" type="line" smooth="yes" identifier="5LJg4ajoG6"/>
      <point x="6792" y="1599" type="line" smooth="yes" identifier="ZqTZqAY3uY"/>
      <point x="841" y="1599" type="line" smooth="yes" identifier="R4lklfJsHA"/>
      <point x="364" y="1082" type="line" smooth="yes" identifier="7g7f8Wu7K4"/>
      <point x="364" y="0" type="line" smooth="yes" identifier="RTOJW56qXy"/>
      <point x="1208" y="0" type="line" identifier="JfSFAkWGZC"/>
      <point x="1208" y="827" type="line" smooth="yes" identifier="WWvGwSpq0g"/>
      <point x="1477" y="1097" type="line" smooth="yes" identifier="oee4nqI8Wl"/>
      <point x="3140" y="1097" type="line" identifier="Ljn2lpvpG8"/>
      <point x="3140" y="99" type="line" smooth="yes"/>
      <point x="3984" y="99" type="line"/>
      <point x="3984" y="1097" type="line" identifier="GlWB6PG54Z"/>
      <point x="5947" y="1097" type="line" identifier="iqeTRv7HXg"/>
    </contour>
  </outline>
</glyph>
<glyph name="N.narrow" format="2">
  <advance width="6351"/>
  <outline>
    <contour>
      <point x="411" y="81" type="line" smooth="yes"/>
      <point x="1254" y="81" type="line"/>
      <point x="1254" y="743" type="line"/>
      <point x="1634" y="1089" type="line"/>
      <point x="5095" y="1089" type="line"/>
      <point x="5095" y="0" type="line" smooth="yes"/>
      <point x="5940" y="0" type="line" smooth="yes"/>
      <point x="5940" y="1600" type="line" smooth="yes"/>
      <point x="1489" y="1600" type="line" smooth="yes"/>
      <point x="1258" y="1464" type="line"/>
      <point x="1113" y="1464" type="line"/>
      <point x="1113" y="1600" type="line"/>
      <point x="411" y="1600" type="line"/>
    </contour>
  </outline>
</glyph>
<glyph name="N.wide" format="2">
  <advance width="4508"/>
  <outline>
    <contour>
      <point x="291" y="0" type="line" identifier="CkwYPPvJLv"/>
      <point x="1134" y="0" type="line" identifier="oHTJsN7drZ"/>
      <point x="1134" y="1083" type="line" identifier="wfBbYd10Pm"/>
      <point x="1285" y="1083" type="line" identifier="MEnBDHq6zU"/>
      <point x="2995" y="0" type="line" identifier="3Nbopwznvn"/>
      <point x="4216" y="0" type="line" identifier="uKfuudIUvA"/>
      <point x="4216" y="1600" type="line" identifier="XRdLFXiM4t"/>
      <point x="3373" y="1600" type="line" identifier="MUSJPjCIXg"/>
      <point x="3373" y="522" type="line" identifier="VILP20cFmq"/>
      <point x="3222" y="522" type="line" identifier="z5b04GDwRN"/>
      <point x="1516" y="1600" type="line" identifier="LL64NQ6WBE"/>
      <point x="291" y="1600" type="line" identifier="dzUaaP1sjt"/>
    </contour>
  </outline>
</glyph>
<glyph name="R.alt" format="2">
  <advance width="5339"/>
  <outline>
    <contour>
      <point x="1175" y="890" type="line"/>
      <point x="1174" y="1041" type="line"/>
      <point x="4161" y="1041" type="line"/>
      <point x="4162" y="890" type="line"/>
    </contour>
    <contour>
      <point x="5008" y="1" type="line"/>
      <point x="4403" y="577" type="line"/>
      <point x="5051" y="583" type="line"/>
      <point x="5005" y="1601" type="line"/>
      <point x="331" y="1601" type="line"/>
      <point x="331" y="1" type="line"/>
      <point x="1174" y="1" type="line"/>
      <point x="1174" y="415" type="line"/>
      <point x="3656" y="414" type="line"/>
      <point x="4171" y="1" type="line"/>
    </contour>
  </outline>
</glyph>
<glyph name="S.wide" format="2">
  <advance width="5184.602602602602"/>
  <outline>
    <contour>
      <point x="82.3753753753754" y="0.0" type="line" identifier="09VlJ0BjUX"/>
      <point x="5056.009009009009" y="0.0" type="line" identifier="EagWihqFM8"/>
      <point x="5056.009009009009" y="981.1801801801802" type="line" identifier="KfNuQA7eZe"/>
      <point x="936.1751751751751" y="981.1801801801802" type="line" identifier="At364YZFEy"/>
      <point x="936.1751751751751" y="935.9409409409409" type="line"/>
      <point x="1053.935935935936" y="1093.4954954954956" type="line"/>
      <point x="5056.009009009009" y="1093.4954954954956" type="line" identifier="3ZUkG35meB"/>
      <point x="5056.009009009009" y="1600.0" type="line" identifier="SaF9ojRFrW"/>
      <point x="569.4644644644644" y="1600.0" type="line"/>
      <point x="80.3753753753754" y="902.2272272272273" type="line"/>
      <point x="80.3753753753754" y="618.8198198198198" type="line" identifier="3sQ8t8BZ6b"/>
      <point x="4200.209209209209" y="618.8198198198198" type="line" identifier="yiV6OCBLHg"/>
      <point x="4200.209209209209" y="506.5045045045045" type="line" identifier="9kdl9SYsn8"/>
      <point x="82.3753753753754" y="506.5045045045045" type="line" identifier="yZDWuX8LLe"/>
    </contour>
  </outline>
</glyph>
<glyph name="Y.alt" format="2">
  <advance width="4902"/>
  <outline>
    <contour>
      <point x="210" y="467" type="line"/>
      <point x="210" y="0" type="line"/>
      <point x="4594" y="0" type="line" identifier="oOtn61SmRY"/>
      <point x="4594" y="1600" type="line" identifier="8OglXgblhr"/>
      <point x="3750" y="1600" type="line" identifier="db0bPhBdaU"/>
      <point x="3750" y="1119" type="line" identifier="MTAeavIVWY"/>
      <point x="1050" y="1119" type="line" identifier="lggLiivmLt"/>
      <point x="1050" y="1600" type="line" identifier="UPaHY3UudR"/>
      <point x="206" y="1600" type="line" identifier="ZnCDQVdtyD"/>
      <point x="206" y="652" type="line" identifier="uqAJBjDIOT"/>
      <point x="3750" y="652" type="line" identifier="7JgTtdb0jg"/>
      <point x="3750" y="467" type="line"/>
    </contour>
  </outline>
</glyph>
<glyph name="Z.wide" format="2">
  <advance width="4926"/>
  <outline>
    <contour>
      <point x="197" y="0" type="line"/>
      <point x="4717" y="0" type="line" identifier="pzdvPTirLJ"/>
      <point x="4717" y="466" type="line"/>
      <point x="1132" y="466" type="line"/>
      <point x="1132" y="530" type="line"/>
      <point x="4696" y="723" type="line" identifier="yyb1NCCI5w"/>
      <point x="4696" y="1600" type="line" identifier="5FogYRSgkk"/>
      <point x="229" y="1600" type="line" identifier="svlFvrau4c"/>
      <point x="229" y="1133" type="line"/>
      <point x="3662" y="1133" type="line"/>
      <point x="3662" y="1096" type="line"/>
      <point x="197" y="913" type="line" identifier="teVKnpBcVb"/>
    </contour>
  </outline>
</glyph>
<glyph name="five.wide" format="2">
  <advance width="5171"/>
  <outline>
    <contour>
      <point x="224" y="0" type="line" identifier="09VlJ0BjUX"/>
      <point x="4947" y="0" type="line" identifier="EagWihqFM8"/>
      <point x="4947" y="861" type="line" identifier="KfNuQA7eZe"/>
      <point x="1066" y="883" type="line" identifier="At364YZFEy"/>
      <point x="1066" y="1073" type="line" identifier="BcuLfvaQKC"/>
      <point x="4947" y="1073" type="line" identifier="3ZUkG35meB"/>
      <point x="4947" y="1600" type="line" identifier="SaF9ojRFrW"/>
      <point x="222" y="1600" type="line" identifier="F4sQEYelA8"/>
      <point x="222" y="593" type="line" identifier="3sQ8t8BZ6b"/>
      <point x="4104" y="572" type="line" identifier="yiV6OCBLHg"/>
      <point x="4104" y="527" type="line" identifier="9kdl9SYsn8"/>
      <point x="224" y="527" type="line" identifier="yZDWuX8LLe"/>
    </contour>
  </outline>
</glyph>
<glyph name="one.narrow" format="2">
  <advance width="2863"/>
  <outline>
    <contour>
      <point x="2741" y="0" type="line" identifier="5nmxQXofSG"/>
      <point x="2741" y="1600" type="line" identifier="4rjIeWbSbx"/>
      <point x="137" y="1600" type="line"/>
      <point x="137" y="1097" type="line"/>
      <point x="1897" y="1097" type="line"/>
      <point x="1897" y="0" type="line"/>
    </contour>
  </outline>
</glyph>
<glyph name="six.wide" format="2">
  <advance width="5334"/>
  <outline>
    <contour>
      <point x="301" y="0" type="line" identifier="uiw6aBUf4P"/>
      <point x="4880" y="0" type="line" identifier="jtYkxiUX6G"/>
      <point x="4880" y="1025" type="line" identifier="2G5L37c87I"/>
      <point x="1144" y="1025" type="line"/>
      <point x="1144" y="995" type="line"/>
      <point x="1341" y="1133" type="line"/>
      <point x="4879" y="1133" type="line"/>
      <point x="4879" y="1600" type="line" identifier="oGvEEuxnYv"/>
      <point x="759" y="1600" type="line" identifier="xR3pEHbMJx"/>
      <point x="301" y="1193" type="line" identifier="KnMArb0tv8"/>
    </contour>
    <contour>
      <point x="4035" y="565" type="line"/>
      <point x="4035" y="467" type="line"/>
      <point x="1144" y="467" type="line"/>
      <point x="1144" y="565" type="line"/>
    </contour>
  </outline>
</glyph>
<glyph name="three.wide" format="2">
  <advance width="5101"/>
  <outline>
    <contour>
      <point x="213" y="0" type="line" identifier="O9abUc1nmN"/>
      <point x="4784" y="0" type="line" identifier="kMJYMTfXCq"/>
      <point x="4784" y="890" type="line" identifier="su2XmdS8e8"/>
      <point x="4225" y="890" type="line" identifier="JQaOzDQqlF"/>
      <point x="4225" y="787" type="line"/>
      <point x="4772" y="997" type="line" identifier="S91TzLL02W"/>
      <point x="4772" y="1600" type="line" identifier="xg8x2Ki40p"/>
      <point x="234" y="1600" type="line" identifier="pE1XSRiy68"/>
      <point x="234" y="1072" type="line" identifier="7ogBYufWpl"/>
      <point x="3744" y="1072" type="line" identifier="RHLvSX2Jv6"/>
      <point x="3744" y="988" type="line" identifier="YUjTrmoWd9"/>
      <point x="3523" y="953" type="line"/>
      <point x="3523" y="952" type="line" identifier="iic1IBkDqp"/>
      <point x="941" y="952" type="line" identifier="lRLJEhXMlO"/>
      <point x="941" y="642" type="line" identifier="8aKgEELrVU"/>
      <point x="3940" y="642" type="line" identifier="Dm8zjmbhNr"/>
      <point x="3940" y="527" type="line" identifier="xv9CFHiFgB"/>
      <point x="213" y="527" type="line" identifier="YajKQV3MHP"/>
    </contour>
  </outline>
</glyph>
